<svg width="400" height="200" viewBox="0 0 400 200" xmlns="http://www.w3.org/2000/svg">
  <defs>
    <linearGradient id="whiteGradient" x1="0%" y1="0%" x2="100%" y2="100%">
      <stop offset="0%" stop-color="#FFFFFF" />
      <stop offset="100%" stop-color="#F8F8FF" />
    </linearGradient>
  </defs>
  <rect width="400" height="200" fill="url(#whiteGradient)" />
  <path d="M0,50 C50,30 100,70 150,50 C200,30 250,70 300,50 C350,30 400,70 450,50 L450,200 L0,200 Z" 
        fill="#E0E0FF" opacity="0.3" />
  <path d="M0,80 C50,60 100,100 150,80 C200,60 250,100 300,80 C350,60 400,100 450,80 L450,200 L0,200 Z" 
        fill="#E0E0FF" opacity="0.2" />
  <path d="M0,110 C50,90 100,130 150,110 C200,90 250,130 300,110 C350,90 400,130 450,110 L450,200 L0,200 Z" 
        fill="#E0E0FF" opacity="0.1" />
</svg>
